<svg xmlns="http://www.w3.org/2000/svg" xml:space="preserve" width="316" height="230"><defs><style>.st2{fill:#85c5ee}.st3{fill:#6194d9}.st4{fill:#d0def6}.st5{fill:#fefefe}.st6{fill:#ededed}.st7{fill:#071a42}</style></defs><path d="M69.802 157.163s-8.45-2.016-15.939-10.236c-2.996-3.284-3.533 13.097 14.192 22.738" class="st2"/><path fill="none" stroke="#071a42" stroke-miterlimit="10" stroke-width="5.435" d="M69.802 157.163s-8.45-2.016-15.939-10.236c-2.996-3.284-3.533 13.097 14.192 22.738"/><path stroke-width=".192" d="M202.16 192.27c-10.102-.48-48.241-.5-48.241-.5-9.929.174-19.454.52-28.423 1-18.551.767-45.802 4.512-45.802 4.512-15.94 2.612-25.484 5.935-25.484 9.564 0 8.412 51.449 15.23 114.92 15.23s114.9-6.818 114.9-15.23c0-8.411-34.51-12.694-81.868-14.576z" class="st7"/><path d="M160.31 199.258c-.268-.115-.518-.192-.767-.192s-.519.058-.788.192c-1.574.768-3.168 3.553-4.167 7.26l-.077.287h.308a58 58 0 0 0 6.51-.077h.192l.019-.21c.058-.385.096-.827.173-1.307.057-1.229.096-5.28-1.402-5.972zm12.061 4.322c-.269-2.325-1.114-6.204-3.668-6.204h-.211c-1.901.154-3.246 4.302-3.88 8.162 0 .192-.019.384-.038.557v.307c-.019 0 .269-.038.269-.038 2.324-.346 4.283-.826 5.838-1.48a9.5 9.5 0 0 0 1.594-.806l.134-.096v-.153c-.038-.02-.057-.27-.057-.27z" class="st6"/><path d="m175.252 194.841-.039.211c-.038.173-.057.346-.096.519l-.077.422a63 63 0 0 1-.48 2.535l-.153.769-.308-.711c-1.536-3.572-4.052-4.11-5.396-4.11s-.307 0-.442.02c-1.824.153-3.341 1.401-4.513 3.706l-.192.384-.23-.346c-.48-.73-1.095-1.286-1.824-1.613-.653-.288-1.306-.441-1.978-.441s-1.383.172-2.055.499c-3.572 1.747-5.3 7.432-5.896 9.794l-.058.211h-.21c-5.34-.5-9.795-1.555-12.176-2.9-2.823-1.594-4.033-4.993-3.476-9.794v-.134l.154-.058a31 31 0 0 0 3.648-1.863c.615-.345 1.23-.749 1.844-1.113a52 52 0 0 1 1.92-1.172c4.628-2.708 8.7-4.013 12.445-4.013s3.994.422 5.8 1.229c.844.345 1.69.787 2.515 1.286 1.21.71 2.4 1.556 3.63 2.4 1.555 1.076 3.149 2.19 4.8 3.073.845.461 1.69.845 2.612 1.172l.192.077z" class="st3"/><path d="M148.904 192.037c-4.552 5.416-3.976 12.08 2.688 14.403l-.057.212h-.212c-5.338-.5-9.794-1.556-12.175-2.9-2.823-1.594-4.033-4.993-3.476-9.794v-.135l.154-.057a31 31 0 0 0 3.649-1.863c.614-.346 1.229-.749 1.843-1.114a52 52 0 0 1 1.92-1.171c4.629-2.708 8.7-4.014 12.445-4.014s3.994.423 5.8 1.23c.844.345 1.69.787 2.515 1.286-3.918-.23-11.734-.096-15.114 3.917z" class="st3"/><path d="M175.252 193.017a99 99 0 0 0-.365 2.516 102 102 0 0 1-.538 2.938c-1.748-4.033-4.667-4.34-6.088-4.225-2.131.173-3.648 1.767-4.705 3.84-.48-.729-1.094-1.324-1.92-1.69-1.402-.633-2.861-.614-4.244.058-3.649 1.767-5.396 7.452-6.011 9.948-5.05-.46-9.621-1.46-12.08-2.842-3.34-1.901-3.763-5.953-3.36-9.545l.134-1.997-6.087.884v2.938c-.077 4.743 1.248 9.89 6.433 12.809 5.819 3.303 18.013 4.59 27.673 3.476 3.342-.384 6.395-1.037 8.757-2.017 3.342-1.363 5.377-3.303 6.069-5.742.94-3.322 1.363-5.818 1.709-7.816.038-.25.384-2.323.441-2.573-1.594.25-5.818-.922-5.818-.922zm-13.77 12.214c-.077.46-.134.883-.173 1.286-2.093.154-4.301.173-6.471.096.98-3.61 2.535-6.356 4.052-7.105.46-.23.864-.23 1.344 0 .999.46 1.383 2.976 1.268 5.742zm9.141-.557c-1.613.653-3.59 1.133-5.78 1.46 0-.193.038-.385.038-.577.634-3.88 1.94-7.797 3.65-7.931 2.592-.211 3.38 4.11 3.61 5.972.019.135.038.23.038.288-.403.25-.903.519-1.556.788" class="st7"/><path d="m252.855 178.575-.672-.076a5.3 5.3 0 0 0-4.302 1.363c-1.344 1.248-1.747 3.15-1.248 5.704l.077.422-.404-.134c-.825-.288-1.651-.327-2.42-.135-1.42.346-2.515 1.23-3.13 2.535-1.363 2.823-.345 6.856.769 9.717l.076.212-.21.096a35 35 0 0 1-2.036.845c-5.34 2.112-10.351 3.072-13.386 2.535a11.5 11.5 0 0 1-1.632-.442c-5.396-2.016-10.985-8.93-13.846-12.867l-.25-.345.423-.039c3.13-.307 6.299-1.306 9.41-3.034 2.746-1.46 5.223-3.15 7.72-4.897.768-.5 1.555-1.075 2.4-1.67.557-.404 1.152-.807 1.748-1.23 3.86-2.67 6.932-7.528 10.888-6.548.653.172 1.498-1.364 2.19-1.114 1.133.422 3.59 3.495 4.993 4.205 0 0 2.804 3.707 3.476 4.417l-.653.48z" class="st2"/><path d="M249.398 192.364c-1.42-1.978-2.861-3.342-3.898-3.726s-.634-.153-.884-.096c-.576.135-.96.442-1.21.96-.672 1.383-.384 4.072.769 7.164l.096.25.25-.135a50 50 0 0 0 5.357-3.207l.192-.135-.115-.192c-.153-.269-.326-.557-.518-.902zm6.837-8.296v-.096l-.077-.058c-.845-.768-2.112-1.805-3.38-2.266-1.19-.442-2.17-.326-2.919.365-1.402 1.306.115 5.396 2.017 8.834.096.134.172.269.268.384l.27.403.21-.173c1.998-1.747 3.265-3.437 3.457-4.628.173-1.056.23-1.94.135-2.727z" class="st6"/><path d="M239.355 199.124c-5.34 2.112-10.351 3.072-13.386 2.535a11.5 11.5 0 0 1-1.632-.442c-5.396-2.016-10.985-8.93-13.846-12.867l-.25-.345.423-.039c3.13-.307 6.299-1.306 9.41-3.034 2.746-1.46 5.223-3.15 7.72-4.897.768-.5 1.555-1.075 2.4-1.67.557-.404 1.152-.807 1.748-1.23-.922 3.015-2.785 10.908.557 16.592 2.15 3.65 4.781 4.974 6.836 5.397z" class="st3"/><path d="M261.612 187.736c.038-.23.941-3.956-.365-6.856-3.63-8.047-10.543-13.25-12.406-14.269s-4.378 3.323-4.378 3.323c3.457 2.439 7.547 7.393 8.334 8.238-2.247-.288-4.32.788-5.089 1.498-1.574 1.46-1.766 3.649-1.325 5.934-.826-.288-1.69-.365-2.554-.154-1.498.365-2.63 1.287-3.303 2.67-1.421 2.957-.288 7.182.749 9.91-5.819 2.572-11.772 3.994-15.286 3.36-5.34-.941-11.388-7.797-15.325-13.232-2.612.096-7.47-.595-7.47-.595 2.842 4.513 11.445 17.034 20.874 19.377.307.077.595.134.903.192 7.624 1.344 20.318-3.572 28.191-9.103 5.012-3.514 7.855-7.01 8.412-10.332zm-17.226 8.834c-1.114-2.996-1.421-5.608-.768-6.971.211-.461.538-.711 1.037-.845 1.056-.27 2.919 1.478 4.551 3.725.173.307.346.615.519.884a47 47 0 0 1-5.32 3.187zm8.085-5.34c-.115-.172-.25-.364-.384-.556-1.901-3.438-3.303-7.336-2.055-8.507 1.67-1.556 4.417.499 5.953 1.92.077.749.039 1.613-.134 2.67-.154.96-1.152 2.534-3.38 4.474" class="st7"/><path d="M193.764 208.745c-.326-1.19-1.517-5.07-3.15-5.262h-.268c-.461 0-.826.154-1.19.5-1.287 1.228-1.96 4.435-1.767 8.353v.269l.288-.038a53 53 0 0 0 5.953-1.268c.077 0 .595-.173.595-.173l-.038-.23a42 42 0 0 1-.404-2.132zm4.955-9.717a2.4 2.4 0 0 0-.884.173c-2.208.921-1.478 7.086-1.21 8.968.154.576.27 1.133.385 1.651l.057.288.27-.115c2.342-.96 4.07-2.112 4.608-3.053.691-1.23 1.056-2.4 1.133-3.591v-.058l-.019-.058c-.96-1.92-2.497-4.186-4.36-4.186z" class="st6"/><path d="m201.523 196.858-.557-.25c-.71-.326-1.46-.5-2.228-.5s-1.575.212-2.016.404c-1.69.691-2.747 2.343-3.169 4.916l-.077.423-.326-.27c-.672-.556-1.421-.883-2.228-.979-.211-.019-.403-.038-.614-.038-1.21 0-2.324.46-3.227 1.306-2.708 2.573-2.823 7.912-2.65 10.87v.23l-.211.019c-.788.077-1.556.134-2.343.192a55 55 0 0 1-3.534.115c-5.185 0-9.294-.71-11.58-2.016-6.24-3.534-9.121-14.998-9.851-18.436l-.096-.46.441.191c4.014 1.748 8.565 3.745 13.174 4.321a25 25 0 0 0 3.4.23c2.9 0 5.934-.48 9.14-1.44 1.998-.595 4.053-1.382 6.203-2.381.461-.211.922-.442 1.383-.653 2.612-1.267 5.3-2.573 8.143-3.15l.21-.038.059.211c.595 2.132 1.747 5.281 2.285 6.664l.23.557z" class="st2"/><path d="M181.915 213.162c-1.19.077-2.362.115-3.533.115-5.185 0-9.295-.71-11.58-2.016-6.241-3.534-9.122-14.999-9.852-18.436l-.096-.461.442.192c4.013 1.748 8.565 3.745 13.174 4.32a25 25 0 0 0 3.399.231c2.9 0 5.934-.48 9.141-1.44-2.458 1.748-5.262 4.455-6.299 8.066-1.383 4.935 2.689 8.046 5.204 9.448z" class="st3"/><path d="M206.67 194.61a125 125 0 0 1-1.863-5.146c-3.035-.46-6.011.25-6.011.25.557 2.016 1.67 5.07 2.304 6.683a5.44 5.44 0 0 0-4.436-.096c-1.997.826-2.938 2.784-3.322 5.089a4.56 4.56 0 0 0-2.343-1.037c-1.536-.173-2.92.288-4.033 1.344-2.842 2.708-2.88 8.373-2.727 11.062-7.125.71-14.057.153-17.284-1.69-5.473-3.111-8.545-12.771-9.736-18.283-2.977-1.498-6.184-1.248-6.184-1.248.365 2.247 3.361 19.127 13.04 24.62 4.84 2.746 13.481 3.264 21.643 2.323 3.322-.384 6.548-.998 9.41-1.786 6.126-1.709 10.082-4.052 11.714-6.97 3.418-6.088 1.421-11.081-.173-15.076zm-13.117 16.44a57 57 0 0 1-5.934 1.267c-.192-3.822.46-6.99 1.69-8.162.384-.346.749-.48 1.267-.422 1.076.134 2.228 2.42 2.958 5.089q.201 1.239.403 2.131c-.115.039-.25.077-.365.116zm8.2-4.206c-.422.749-1.843 1.863-4.494 2.957-.096-.5-.23-1.056-.384-1.67-.576-3.88-.518-8.028 1.057-8.68 2.112-.865 3.975 2.035 4.916 3.898-.077 1.113-.404 2.246-1.114 3.495z" class="st7"/><path d="M120.002 204.29c-.27-.116-.519-.192-.768-.192s-.519.057-.788.192c-1.575.768-3.169 3.552-4.167 7.259l-.077.288h.307a58 58 0 0 0 6.51-.077h.193l.019-.211c.057-.384.096-.826.173-1.306.057-1.23.096-5.281-1.402-5.973zm12.06 4.301c-.27-2.323-1.114-6.203-3.668-6.203h-.211c-1.902.154-3.246 4.302-3.88 8.162 0 .192-.019.384-.038.557v.307c-.02 0 .269-.038.269-.038 2.323-.346 4.282-.826 5.838-1.479a9.5 9.5 0 0 0 1.594-.806l.134-.096v-.154c-.038-.02-.057-.269-.057-.269z" class="st6"/><path d="m134.942 199.853-.038.212c-.038.173-.058.345-.096.518l-.077.423a63 63 0 0 1-.48 2.535l-.154.768-.307-.71c-1.536-3.573-4.052-4.11-5.396-4.11s-.307 0-.442.019c-1.824.153-3.341 1.402-4.513 3.706l-.192.384-.23-.345c-.48-.73-1.095-1.287-1.825-1.614-.653-.288-1.306-.441-1.978-.441s-1.382.173-2.055.5c-3.571 1.747-5.3 7.431-5.895 9.793l-.058.211h-.211c-5.339-.499-9.794-1.555-12.175-2.9-2.823-1.593-4.033-4.993-3.476-9.794v-.134l.153-.058a31 31 0 0 0 3.65-1.862c.614-.346 1.228-.75 1.843-1.114a52 52 0 0 1 1.92-1.172c4.628-2.707 8.7-4.013 12.444-4.013s3.995.422 5.8 1.229c.845.345 1.69.787 2.516 1.286 1.21.711 2.4 1.556 3.63 2.401 1.555 1.075 3.149 2.19 4.8 3.073.845.46 1.69.845 2.612 1.171l.192.077z" class="st2"/><path d="M108.614 197.05c-4.552 5.415-3.976 12.079 2.688 14.403l-.057.21h-.212c-5.338-.498-9.794-1.555-12.175-2.899-2.823-1.594-4.033-4.993-3.476-9.794v-.134l.154-.058a31 31 0 0 0 3.649-1.863c.614-.345 1.229-.749 1.843-1.114a52 52 0 0 1 1.92-1.171c4.629-2.708 8.7-4.014 12.445-4.014s3.994.423 5.8 1.23c.844.345 1.69.787 2.515 1.286-3.918-.23-11.734-.096-15.114 3.918z" class="st3"/><path d="M134.942 198.03a99 99 0 0 0-.364 2.515 102 102 0 0 1-.538 2.938c-1.748-4.033-4.667-4.34-6.088-4.225-2.132.173-3.649 1.767-4.705 3.841-.48-.73-1.094-1.325-1.92-1.69-1.402-.634-2.862-.615-4.244.058-3.65 1.766-5.397 7.45-6.011 9.947-5.05-.46-9.621-1.46-12.08-2.842-3.341-1.901-3.763-5.953-3.36-9.544l.134-1.998-6.087.884v2.938c-.077 4.743 1.248 9.89 6.433 12.81 5.819 3.302 18.013 4.589 27.673 3.475 3.341-.384 6.395-1.037 8.757-2.016 3.341-1.364 5.377-3.303 6.068-5.742.941-3.323 1.364-5.82 1.71-7.816.038-.25.384-2.324.441-2.574-1.594.25-5.819-.921-5.819-.921zm-13.769 12.213c-.077.46-.134.883-.173 1.287-2.093.153-4.301.172-6.471.096.979-3.61 2.534-6.357 4.052-7.106.46-.23.864-.23 1.344 0 .998.46 1.383 2.977 1.267 5.742zm9.141-.557c-1.613.653-3.59 1.133-5.78 1.46 0-.193.038-.385.038-.577.634-3.879 1.94-7.797 3.649-7.93 2.593-.212 3.38 4.109 3.61 5.971.02.135.039.23.039.289-.404.25-.903.518-1.556.787" class="st7"/><g stroke-width=".192"><path d="M109.62 51.563a256 256 0 0 0-8.642 16.497l-.326.691-.135-.768c-.595-3.476-1.632-6.664-3.092-9.506-1.594-3.111-3.668-5.723-6.164-7.778-5.435-4.36-11.542-6.664-17.668-6.664-10.063 0-18.475 6.242-22.508 16.727-2.92 8.642-7.356 16.42-13.232 23.2-.557.633-1.134 1.267-1.71 1.9 2.324-2.054 4.36-4.09 6.127-6.164 3.821-4.398 7.048-9.372 9.602-14.787l.153-.327c1.326-2.938 2.708-5.991 4.82-8.526 3.822-4.974 9.507-7.817 15.614-7.817s4.954.48 7.297 1.422c14.48 5.32 16.42 19.896 15.517 31.188v.23h-.076c-3.419 8.239-6.05 15.632-8.162 21.567-.845 2.343-1.633 4.59-2.4 6.664-1.69 4.551-3.246 8.335-4.764 10.716l-.057.077h-.096c-2.113.48-4.072.826-5.973 1.056-2.65.346-5.358.518-8.027.518-10.658 0-20.664-2.746-28.903-7.912-8.105-4.993-17.246-14.192-16.343-23.602.46-3.956 3.053-6.318 6.03-9.064 3.457-3.073 7.029-6.376 9.698-10.217 1.325-1.863 2.554-3.956 3.668-6.222 1.844-3.957 3.707-7.836 6.011-11.62 6.933-11.848 17.4-19.395 29.46-21.22a23.5 23.5 0 0 1 4.206-.365c2.612 0 5.204.403 7.72 1.21 7.663 2.592 14.154 7.585 20.453 12.425l.672.518a27.5 27.5 0 0 0-2.4-4.82l-.23-.365h.537c1.767.365 4.071 1.133 5.032 2.746 1.325 2.209-.192 5.78-1.69 8.392z" class="st2"/><path d="M272.97 147.74c-7.566-10.85-14.269-29.056-19.819-45.418-.5-1.479-.999-2.977-1.498-4.475a1190 1190 0 0 1-3.86-11.734l-.422-1.267c-2.631-8.066-5.358-16.42-8.047-24.044-2.689-7.605-6.145-14.384-10.274-20.145a61 61 0 0 0-3.88-4.916 63.7 63.7 0 0 0-8.507-8.066 57 57 0 0 0-4.935-3.438c-11.331-7.105-25.523-10.716-42.192-10.716s-5.282.096-7.99.25c-20.548 1.306-34.951 8.085-43.44 13.539-3.648 2.343-6.97 4.935-9.89 7.7l-.307.308.423.115c3.59.922 6.145 2.612 7.605 5.013 2.131 3.552 1.594 8.2-1.633 13.808v.038c-11.33 19.781-17.59 37.353-22.18 50.181-3.976 11.12-6.588 18.475-10.448 21.74-1.728 1.459-3.437 2.208-5.05 2.208h-.385v.25c.077 8.43-.557 17.13-1.882 25.867-2.035 13.193-5.473 26.291-10.217 38.927a137 137 0 0 1-2.823 6.971l-.096.212.211.096c2.631 1.363 5.416 2.055 8.278 2.055 4.359 0 8.795-1.556 13.213-4.59 2.554-1.71 5.127-3.092 7.662-4.11l.384-.173-.173-.134c4.974-8.22 9.487-17.457 13.75-28.192a167 167 0 0 0 2.401-6.376c-2.055 9.218-4.705 18.283-7.912 26.982-.788 2.093-1.498 3.956-2.228 5.704l-.154.403.423-.077a23.5 23.5 0 0 1 3.63-.288c2.765 0 5.396.538 7.854 1.613 2.862 1.172 5.32 2.842 7.49 4.321l.845.576c2.016 1.364 4.11 2.766 6.337 3.15.308.057.634.096.96.096 2.747 0 5.32-2.094 8.316-4.532 1.23-.999 2.497-2.017 3.86-2.996l.039-.039.038-.038c1.652-2.766 2.938-5.666 4.36-9.218 2.496-6.338 4.532-13.31 6.03-20.722.48-2.247.883-4.59 1.229-6.837-.154 4.57-.461 8.642-.922 12.348-1.018 8.22-2.382 14.826-4.302 20.818l-.134.441.441-.134a16.8 16.8 0 0 1 4.57-.634c1.557 0 2.017.096 3.054.27 2.535.422 5.013 1.497 7.394 2.534 1.863.807 3.61 1.556 5.377 2.036 1.978.653 4.072.98 6.223.98 3.917 0 8.104-1.057 12.79-3.227.576-.269 1.152-.557 1.728-.826 2.17-1.056 4.417-2.15 6.78-2.804 2.188-.691 4.608-1.037 7.2-1.037s.827 0 1.249.02h.423a6 6 0 0 1-.193-.346c-2.938-5.627-4.781-12.867-5.32-20.952-.134-1.325-.134-3.034-.153-4.532v-1.671c.058-1.287.173-3.534.23-4.801l.174-1.652.038 1.671c.077.941.25 3.188.327 4.09l.057.692c.077.5.154 1.114.25 1.767.153 1.056.288 2.17.422 2.938 1.153 6.318 2.958 11.849 5.397 16.42 1.19 2.208 2.861 5.012 5.204 7.336l.058.058h.076c2.459.557 4.878 1.037 7.337 1.037s3.015-.192 4.513-.576c6.164-1.556 10.294-7.51 14.288-13.27 4.685-6.76 9.544-13.77 17.764-13.866h.768c2.976 0 5.876.46 8.584.94.346.058.71.135 1.076.193 1.133.21 2.304.422 3.36.537l.442.058-.192-.403c-.48-.96-1.114-1.94-1.728-2.862-.25-.403-.519-.787-.73-1.152-.634-.999-1.287-2.017-1.901-2.996l-.5-.787c-3.226-5.262-5.991-10.793-7.989-15.997a60.5 60.5 0 0 1-2.592-8.604c-.538-2.689-1.018-5.53-.71-8.354 1.151 5.243 3.686 10.102 6.125 14.807l.346.672c3.246 5.877 7.22 12.233 11.465 18.36.288.441.595.883.883 1.324 1.326 1.978 2.708 4.014 3.17 6.434.326 1.978-.596 3.726-2.42 4.513l-.308.134.23.25.461.518.077.096h.115c5.282-.345 8.604-1.882 9.89-4.513 1.844-3.783-.172-10.466-5.357-17.918zm-127.98-42.403c-3.111 2.113-7.029 3.284-11.043 3.284s-5.147-.5-7.336-1.46c-4.052-1.747-9.199-5.838-10.678-15.286-1.498-9.507 1.267-15.536 3.86-18.916 2.92-3.803 7.298-6.338 11.715-6.818a21 21 0 0 1 2.17-.115c6.875 0 12.656 3.514 15.882 9.621 5.992 11.35 4.071 23.813-4.57 29.69m85.44-14.346c-2.804 2.631-6.78 4.379-10.927 4.763-.403.038-.807.057-1.133.077l-.096.46a5.9 5.9 0 0 1 1.901 1.287c3.303 3.073 3.015 6.51-.94 11.14l-.059.076a4 4 0 0 0-.134.192l-.058.077.096 1.056c.135 1.344.116 2.65-.057 3.86-.384 2.785-1.517 5.147-3.303 6.722-1.863 1.728-4.36 2.688-7.03 2.688s-3.802-.518-5.396-1.479a10 10 0 0 1-1.401-.921l-.116-.077-.134.057a2 2 0 0 1-.557.135h-.461c-2.842 0-5.723-.25-8.604-.75h-.134c0-.018-.096.078-.096.078-3.956 4.36-10.524 7.067-17.111 7.067s-1.018-.02-1.575-.058c-6.99-.48-12.867-4.052-16.535-10.082-1.767-2.919-2.823-6.452-3.11-10.313-.25-3.36.095-6.952 1.017-10.6 2.381-9.315 8.22-17.419 15.594-21.644.864-.499 5.473-2.976 11.023-2.976s2.957.192 4.34.557c3.495.94 6.357 3.091 8.527 6.395v.038c.02 0 .057.038.057.038.212.154.404.289.615.442 3.034 2.209 5.032 5.55 6.952 8.777l.538.921c.902 1.517 1.767 2.958 2.727 4.206.71.903 1.46 1.748 2.496 2.228.807.307 1.69.46 2.747.46s1.555-.076 2.362-.153l.326-.038.039-.48c-9.41-2.689-15.018-13.27-13.328-25.177 1.037-7.279 5.972-12.675 13.213-14.422a15 15 0 0 1 3.495-.423c3.207 0 6.51.98 9.276 2.766 3.418 2.208 7.873 6.74 9.602 15.805 1.728 9.026-1.594 14.365-4.686 17.265z" class="st5"/><path d="M295.61 71.612c-1.652 6.434-6.318 12.387-13.866 17.706-6.798 4.782-15.191 7.759-24.274 8.604h-.192l-.058-.173c-1.017-3.054-2.035-6.107-3.034-9.142a913 913 0 0 0-1.786-5.434c-2.631-8.066-5.358-16.42-8.085-24.16-3.034-8.622-7.067-16.284-12.003-22.795l-.134-.173.153-.154a15 15 0 0 1 1.21-.998c3.88-3.092 8.488-4.802 12.944-4.802s2.42.135 3.572.385c5.435 1.113 10.543 5.3 13.635 11.215l.25.46c.883 1.71 1.882 3.63 2.938 5.3 3.36 5.57 7.816 10.698 13.097 15.076l1.21.98c-3.84-3.688-6.952-7.433-9.43-11.389-1.747-2.727-3.303-5.569-4.59-8.507-1.324-3.188-2.688-6.26-4.762-8.873-4.167-5.569-10.505-8.776-17.36-8.776-6.857 0-5.532.518-8.163 1.575-2.861 1.075-5.473 2.554-7.758 4.417l-.192.153-.154-.172a67.4 67.4 0 0 0-8.527-8.047l-.23-.173.21-.192c4.149-3.84 10.794-8.43 18.879-8.43s1.786.057 2.67.172c18.512 2.036 27.596 14.922 34.644 28.538a40.7 40.7 0 0 0 8.354 10.505c1.172 1.095 2.478 2.151 3.726 3.15 1.882 1.517 3.822 3.072 5.3 4.82 2.036 2.458 2.65 5.704 1.786 9.333zM127.34 105.35c1.978.864 4.263 1.306 6.587 1.306 3.591 0 7.125-1.056 9.929-2.958 7.797-5.3 9.448-16.727 3.937-27.155-2.881-5.454-8.047-8.584-14.192-8.584-6.146 0-1.287.038-1.94.096-3.898.423-7.778 2.689-10.37 6.069-2.362 3.072-4.878 8.565-3.476 17.418 1.344 8.584 5.934 12.252 9.525 13.808" class="st2"/><path fill="#ffa69f" d="M172.13 119.93a15.7 15.7 0 0 0 3.111.307c2.727 0 5.32-.73 7.451-2.093l.404-.25-.442-.173c-2.67-1.075-5.128-2.38-7.279-3.879l-.038-.038h-.057c-.212-.058-.423-.077-.615-.077s-.403.02-.576.077c-.519.134-.883.46-1.095.71l-.173.212.23.153c.884.595 1.73 1.364 2.555 2.305-.307-.096-.595-.192-.902-.288-1.575-.5-3.227-1.037-4.763-1.037h-.154c-1.21 0-2.016.69-2.496 2.093l-.058.192.173.096a15.9 15.9 0 0 0 4.743 1.69z"/><path d="M169.09 113.52c.423 0 .864.058 1.306.154l.173.038.096-.154a5.1 5.1 0 0 1 1.709-1.69l.288-.172-.25-.23c-3.188-2.881-5.454-6.3-6.74-10.16l-.096-.307-.27.192c-1.785 1.248-5.703 4.801-3.533 10.908.538 1.498 1.537 2.938 2.9 4.187l.25.23.134-.307c.615-1.364 1.652-2.286 2.92-2.593a5.5 5.5 0 0 1 1.132-.115z" class="st7"/><path d="M217.43 100.48c-.48-.46-.941-.71-1.556-.883-.422-.096-.883-.135-1.42-.135s-1.268.058-1.902.115c-.576.058-1.171.116-1.767.116h-.614c-1.46 0-4.168-.25-6.069-1.902-2.112-1.786-3.437-4.148-4.743-6.452-.212-.346-.404-.71-.596-1.056-.134-.23-.25-.461-.384-.673l-.038-.057-.058-.039a12.1 12.1 0 0 0-5.819-1.517c-1.997 0-1.037.039-1.555.115-1.863.25-3.803 1.076-5.512 2.363.422-.48.864-.903 1.344-1.306 2.132-1.882 5.09-2.958 8.143-2.958h.288c.25 0 .519.02.768.039l.48.038-.269-.403a23.5 23.5 0 0 0-1.766-2.478 9 9 0 0 0-.557-.653l-.039-.057h-.057a14.1 14.1 0 0 0-4.859-.845c-1.71 0-4.263.441-6.222 1.267-.557.211-1.095.48-1.594.768 1.613-1.363 3.36-2.38 5.223-3.053a18.6 18.6 0 0 1 3.765-.903l.633-.076-.537-.365a20 20 0 0 0-2.92-1.633c-1.325-.595-2.688-.998-3.956-1.171-.153 0-.192-.154-.21-.25 0-.077 0-.211.172-.25.749-.153 1.498-.23 2.285-.23s1.748.096 2.631.288l.192-.442a11.6 11.6 0 0 0-3.514-1.574c-1.172-.327-2.458-.48-3.783-.48-3.956 0-7.913 1.459-10.082 2.707a27.6 27.6 0 0 0-5.646 4.36c-4.206 4.186-7.433 9.852-9.027 16.093-1.882 7.317-1.19 14.384 1.863 19.396 3.342 5.473 8.68 8.738 15.018 9.16.48.039.98.058 1.46.058 5.454 0 10.889-1.997 14.576-5.358l.345-.308-.46-.115a50 50 0 0 1-2.67-.71l-.134-.039-.096.096c-2.9 2.612-6.799 4.072-10.985 4.072-4.187 0-2.44-.116-3.688-.365-5.934-1.153-10.87-4.955-12.54-9.698-2.746-7.778 2.209-12.982 5.378-14.768l.076.134.461-.154a5 5 0 0 1-.115-.768c-.038-.307-.077-.614-.096-.94 0-.193-.038-.366-.058-.539 0-.076 0-.134.058-.172.039-.058.096-.096.192-.096.115 0 .192.076.23.172 4.648 12.33 15.806 19.55 33.129 21.471l.46.058-.21-.403a12.5 12.5 0 0 1-.865-2.266c-.211-.865-.288-1.633-.25-2.343 1.21 1.613 2.209 2.746 3.246 3.725 1.479 1.498 4.474 3.976 7.778 3.976s2.035-.25 2.976-.73c1.882-.864 2.9-2.382 3.4-4.014.672-2.112.499-4.417.326-5.684 0-.096-.02-.192-.038-.308-.02-.21-.058-.441-.058-.672 0-.576.269-1.248.5-1.632.287-.461.652-.922 1.017-1.44.615-.826 1.268-1.671 1.575-2.459.442-1.152.269-1.786-.73-2.746zm-10.87 9.41c1.23-3.034 4.129-4.57 5.377-4.705.038 0 .115 0 .173.077.096.096.23.365.192 1.095l-.058.844a58 58 0 0 0-.192 4.38c0 2.208-1.498 4.781-3.418 4.781s-.269 0-.403-.038c-.73-.135-1.325-.576-1.71-1.306-.73-1.306-.71-3.284.039-5.147zm26.69-35.82c-1.613-8.43-5.665-12.598-8.796-14.595-2.477-1.594-5.415-2.477-8.277-2.477s-2.093.115-3.072.364c-6.472 1.575-10.89 6.396-11.811 12.905-1.594 11.215 3.61 21.01 12.368 23.257 1.267.327 2.611.5 3.975.5 4.282 0 8.565-1.633 11.484-4.36 2.746-2.573 5.704-7.374 4.129-15.556z" class="st2"/><path d="M95.27 80.85v.23h-.077c-3.418 8.24-6.05 15.632-8.162 21.567-.845 2.343-1.632 4.59-2.4 6.664-4.917 1.614-22.968 6.472-39.004-2.88-18.782-10.966-15.575-14.883-13.405-16.977.96-.922 3.072-2.747 5.646-5.474-.557.634-1.133 1.268-1.71 1.902 2.324-2.055 4.36-4.091 6.127-6.165 3.821-4.398 7.048-9.372 9.602-14.787l.154-.327c1.325-2.938 2.707-5.991 4.82-8.526 3.822-4.974 9.506-7.816 15.613-7.816s4.955.48 7.298 1.42c14.48 5.32 16.42 19.897 15.517 31.189zm158.92 7.758a913 913 0 0 0-1.786-5.435c-2.631-8.066-5.358-16.42-8.085-24.159-3.034-8.623-7.067-16.285-12.003-22.796l-.134-.173.153-.153c.384-.346.788-.692 1.21-.999 3.88-3.092 8.488-4.801 12.944-4.801 4.455 0 2.42.134 3.572.384 5.435 1.114 10.543 5.3 13.635 11.215l.25.461c.883 1.71 1.882 3.63 2.938 5.3 3.36 5.57 7.816 10.697 13.097 15.075 2.458 2.266 4.302 3.496 4.859 3.937 1.229.999-.404 14.615-30.67 22.143z" class="st3"/><path d="M199.9 188.09h-.422c-.423-.038-.826-.038-1.249-.038-2.592 0-5.012.345-7.201 1.037-2.363.652-4.61 1.747-6.78 2.803-.576.27-1.152.557-1.728.826-4.686 2.19-8.872 3.226-12.79 3.226s-4.244-.326-6.222-.979c-1.767-.48-3.515-1.23-5.377-2.036-2.382-1.037-4.86-2.093-7.394-2.535a18.4 18.4 0 0 0-3.054-.269c-1.555 0-3.053.212-4.57.634l-.442.135.135-.442c1.92-5.973 3.284-12.598 4.301-20.818.461-3.706.768-7.778.922-12.348-.346 2.247-.749 4.59-1.229 6.837-1.517 7.413-3.534 14.384-6.03 20.722-1.421 3.533-2.708 6.452-4.36 9.218l-.038.038-.038.039c-1.364.96-2.65 1.997-3.86 2.996-2.996 2.42-5.57 4.532-8.316 4.532s-.653-.039-.96-.096c-2.228-.404-4.321-1.786-6.338-3.15l-.845-.576c-2.17-1.479-4.628-3.15-7.49-4.32-2.457-1.076-5.088-1.614-7.854-1.614s-2.4.096-3.63.288l-.422.077.154-.404c.71-1.747 1.44-3.61 2.227-5.703 3.207-8.7 5.858-17.764 7.913-26.982a168 168 0 0 1-2.401 6.376c-4.263 10.735-8.757 19.953-13.75 28.192l.173.134-.384.173c-2.516 1.018-5.109 2.4-7.663 4.11-4.417 3.034-8.872 4.59-13.213 4.59s-5.646-.692-8.277-2.056l-.211-.096.096-.21a157 157 0 0 0 2.823-6.972 196.2 196.2 0 0 0 10.217-38.927c1.325-8.738 1.959-17.438 1.882-25.868v-.25h.365c1.613 0 3.322-.749 5.05-2.208 3.86-3.265 6.472-10.601 10.447-21.74 4.59-12.847 10.85-30.4 22.181-50.18-.556 1.19-17.61 36.7-18.782 62.722-1.19 26.464-19.108 63.163-15.287 68.003 3.803 4.84 27.04-46.724 32.936-57.267 5.915-10.543-1.19 40.464 2.363 48.203 3.552 7.72 13.674 8.43 22.604 2.381 8.93-6.03 10.313-24.966 10.313-24.966s2.458 28.5 7.144 31.975c4.705 3.476 8.7 7.24 19.627 5.185 10.946-2.055 17.975-6.452 24.543-2.765l.192.384z" class="st4"/><path d="M214.82 115.42c-.519 1.632-1.517 3.15-3.4 4.014a6.4 6.4 0 0 1-2.976.73c-3.303 0-6.299-2.497-7.778-3.976-1.037-.98-2.035-2.112-3.245-3.725-.039.71.057 1.478.25 2.342.191.769.48 1.537.864 2.267l.21.403-.46-.058c-17.342-1.92-28.48-9.141-33.128-21.47a.24.24 0 0 0-.23-.174c-.096 0-.154.039-.192.096a.3.3 0 0 0-.058.173c.02.173.038.365.058.538.038.307.057.615.096.941.038.25.076.519.115.768l-.461.154-.077-.135c-3.188 1.786-8.143 7.01-5.377 14.768 1.67 4.744 6.606 8.546 12.54 9.699 1.248.23 2.477.364 3.687.364 4.187 0 8.085-1.44 10.985-4.07l.096-.097.135.039c.883.269 1.786.499 2.669.71l.46.115-.345.308c-3.687 3.36-9.122 5.358-14.576 5.358s-.98 0-1.46-.058c-6.337-.422-11.675-3.687-15.017-9.16-3.054-5.013-3.745-12.08-1.863-19.396 1.594-6.242 5.415-13.885 12.444-18.897-4.686 5.972-1.46 19.588 6.376 27.174 8.987 8.718 18.494 8.45 18.667 6.99s1.9-5.07 3.783-2.67c1.882 2.401 5.32 8.412 11.503 8.508 2.958.038 4.705-1.248 5.742-2.592z" class="st3"/><path d="M219.02 113.96c-.058 3.86-2.458 10.255-8.066 11.734-5.607 1.498-7.201-.807-11.062-1.844-3.84-1.017-5.78.807-11.734 3.841s-17.86 6.587-26.79-1.325c-8.93-7.893-8.162-19.396-8.162-19.396h.23c.289 3.88 1.326 7.413 3.112 10.332 3.687 6.03 9.544 9.622 16.535 10.082.557.038 1.056.058 1.575.058 6.587 0 13.136-2.708 17.11-7.067l.097-.096h.134c2.861.518 5.761.787 8.604.787h.46c.173 0 .365-.058.558-.134l.134-.058.115.077c.442.345.922.653 1.402.922a10.55 10.55 0 0 0 5.397 1.478c1.92 0 5.166-.96 7.028-2.688 1.786-1.575 2.92-3.937 3.304-6.722z" class="st4"/><path d="M148.97 84.518c2.132 8.834-1.402 17.265-12.406 18.59-10.14 1.21-16.093-5.396-16.401-14.96-.307-9.218 4.878-17.38 12.617-18.263s14.019 5.665 16.189 14.634z" class="st7"/><ellipse cx="-42.584" cy="145.01" class="st5" rx="4.513" ry="3.726" transform="rotate(-74.1)"/><path d="M145.24 95.944c-2.516 3.4-7.298 4.052-8.815 2.938s.807-3.59 3.323-6.99 4.263-6.434 5.78-5.32 2.228 5.973-.288 9.372" class="st5"/><path d="M228.24 72.496c2.689 8.008.384 16.093-9.122 18.148-8.757 1.882-14.576-3.783-15.728-12.598-1.114-8.527 2.67-16.458 9.333-17.86 6.683-1.402 12.79 4.167 15.517 12.31" class="st7"/><ellipse cx="-22.529" cy="219.33" class="st5" rx="4.206" ry="3.265" transform="rotate(-77.3)"/><path d="M225.74 84.153c-2.266 3.572-6.99 4.57-8.584 3.553s.557-3.649 2.823-7.221 3.783-6.721 5.377-5.723c1.594 1.018 2.65 5.8.384 9.372z" class="st5"/><path d="M149.73 75.53c-3.63-6.875-10.466-10.486-18.302-9.64-4.475.48-8.93 3.053-11.888 6.913-2.612 3.418-5.416 9.487-3.899 19.089 1.498 9.564 6.722 13.693 10.831 15.479 2.305.999 4.86 1.479 7.433 1.479 3.936 0 7.95-1.133 11.177-3.323 8.738-5.934 10.678-18.55 4.647-29.997zm-6.011 27.981c-4.667 3.169-11.215 3.822-16.285 1.613-3.553-1.536-8.066-5.147-9.391-13.616-1.383-8.757 1.114-14.21 3.438-17.226 2.554-3.341 6.376-5.57 10.217-5.972 6.798-.711 12.752 2.4 15.882 8.354 5.454 10.331 3.821 21.623-3.86 26.847zm68.831 2.859c-.115 1.594-.23 2.785-.25 5.204 0 2.42-1.766 5.416-4.09 4.993-2.324-.422-3.092-3.706-1.863-6.779s4.167-4.705 5.55-4.84c0 0 .768-.172.653 1.422" class="st7"/><path d="M235.31 73.667c-1.748-9.16-6.26-13.75-9.717-15.978-3.918-2.516-8.758-3.418-12.963-2.381-7.336 1.786-12.348 7.259-13.385 14.634-1.71 12.118 3.956 22.738 13.5 25.446-1.862.173-3.629.403-5.338-.25-.96-.442-1.652-1.23-2.4-2.15-1.038-1.345-1.979-2.958-2.958-4.571-1.997-3.323-4.09-7.01-7.336-9.372-.192-.154-.404-.288-.615-.442-2.19-3.341-5.108-5.53-8.68-6.491-7.452-2.016-14.73 1.978-15.536 2.439-7.432 4.283-13.29 12.425-15.71 21.797-2.016 7.874-1.248 15.575 2.113 21.086 3.726 6.107 9.66 9.717 16.727 10.198.519.038 1.056.058 1.575.058 6.606 0 13.289-2.747 17.284-7.144 3.073.537 6.165.787 9.103.749.23 0 .46-.077.653-.135.46.346.94.653 1.44.941 3.937 2.382 9.314 1.92 12.713-1.248 3.015-2.67 3.803-6.99 3.438-10.793a33 33 0 0 1-.077-.96c.058-.077.115-.154.192-.25 3.111-3.649 4.993-7.663.903-11.465-.538-.557-1.21-.999-1.96-1.325.385 0 .769-.038 1.153-.077 4.129-.403 8.162-2.093 11.062-4.84 3.13-2.938 6.51-8.372 4.763-17.475zm-17.361 29.479c-.48 1.23-1.824 2.631-2.573 3.86-.288.461-.557 1.152-.538 1.767 0 .384.077.768.096.98.518 3.552 0 7.816-3.591 9.448-3.745 1.94-7.74-.461-10.486-3.207-1.287-1.19-2.4-2.574-3.592-4.206-.172.999-.038 2.055.193 3.054.21.806.499 1.574.883 2.323-14.038-1.555-27.558-7.048-32.936-21.317a.504.504 0 0 0-.519-.326.507.507 0 0 0-.441.537c.057.5.077 1 .153 1.498.02.23 0 .384 0 .384-3.226 1.71-8.66 7.125-5.8 15.248 1.71 4.82 6.703 8.68 12.734 9.852 1.267.25 2.496.365 3.725.365 4.244 0 8.181-1.44 11.158-4.129.884.27 1.786.5 2.689.71-3.918 3.573-10.005 5.647-15.863 5.244-6.26-.423-11.523-3.63-14.826-9.046-3.034-4.954-3.707-11.964-1.844-19.224 2.247-8.757 7.682-16.343 14.557-20.299 2.593-1.498 8.393-3.63 13.674-2.208 1.249.326 2.4.864 3.438 1.555-1.633-.345-3.342-.403-5.012-.057-.557.134-.461.94.057.98 1.306.172 2.67.595 3.899 1.151.998.461 1.978 1 2.88 1.614a18.2 18.2 0 0 0-3.821.922c-2.747.979-5.109 2.669-7.068 4.781 1.153-.787 2.324-1.536 3.61-2.035 3.42-1.46 7.414-1.71 10.909-.461.192.211.384.422.557.634.634.806 1.21 1.613 1.747 2.458a10 10 0 0 0-.787-.039c-3.111-.076-6.299.98-8.604 3.015-1.171.922-2.055 2.132-2.9 3.323.557-.48 1.057-.999 1.614-1.44 1.632-1.287 3.61-2.247 5.646-2.497 2.458-.346 5.07.192 7.22 1.383.135.23.25.441.385.672 1.498 2.592 2.919 5.492 5.396 7.566 1.844 1.575 4.57 2.036 6.856 1.94 1.728-.039 3.514-.442 5.012-.096.538.134.98.384 1.44.806.942.884 1.076 1.44.673 2.497zm-48.03 12.944c2.055 0 4.283.941 6.376 1.536-.864-1.075-1.92-2.15-3.111-2.976.192-.23.518-.519.98-.634.307-.077.671-.077 1.075 0 2.247 1.575 4.724 2.861 7.336 3.918-2.88 1.843-6.568 2.496-10.39 1.747a16 16 0 0 1-4.667-1.67c.365-1.095 1.018-1.998 2.4-1.94zm-5.09.038c-1.305-1.19-2.304-2.573-2.822-4.09-2.132-6.011 1.805-9.487 3.437-10.64 1.383 4.091 3.765 7.51 6.818 10.275-.941.538-1.517 1.306-1.805 1.767a6.25 6.25 0 0 0-2.535-.039c-1.46.346-2.497 1.421-3.092 2.727m64.124-26.675c-3.86 3.63-9.986 5.166-15.23 3.822-8.622-2.228-13.77-11.888-12.194-22.988.902-6.395 5.262-11.139 11.638-12.694 3.591-.883 7.758-.096 11.158 2.074 3.073 1.978 7.086 6.088 8.68 14.442 1.537 8.085-1.363 12.81-4.071 15.344z" class="st7"/><path d="M300.76 61.76c-1.421-3.342-4.475-6.107-6.99-8.2-3.15-2.593-6.03-5.051-8.489-8.181-2.496-3.035-4.206-6.895-6.222-10.274-3.322-5.704-7.144-11.062-12.118-15.575-8.373-7.586-20.184-11.907-31.495-10.486-7.835 1.19-14.69 5.396-20.126 11.004-14.269-9.2-32.455-13.232-54.176-11.868-37.064 2.362-55.75 21.106-60.187 26.214a33.5 33.5 0 0 0-11.945-7.125c-9.314-3.303-19.569-1.345-28.365 2.784C47.53 36.18 39.58 49.065 33.818 61.74c-2.746 5.742-7.01 10.236-11.753 14.52-5.243 4.666-8.776 9.698-7.931 17.225.71 6.338 4.417 12.1 8.565 16.381 9.929 10.16 23.852 15.978 37.967 16.477a43 43 0 0 0 9.871-.902c.307 9.41-.326 18.878-1.748 28.192-1.478 9.679-3.745 19.224-6.721 28.557-1.978 6.164-4.206 12.31-6.914 18.187a2.86 2.86 0 0 0 .98 3.687c5.723 4.09 12.156 5.339 18.455 4.187 0 0 4.263-1.037 5.953-1.825a33 33 0 0 0 3.687-1.882c1.249-.73 2.497-1.575 3.764-2.285 5.454-3.169 12.022-5.512 18.014-2.766 3.668 1.518 7.125 4.725 10.946 6.76.884.5 1.748.884 2.631 1.191 0 0 4.206.999 5.8.768h.039c2.554-.23 5.031-1.229 7.393-2.976 4.61-3.188 8.22-7.528 13.462-8.354.23-.039.48-.058.71-.077 0 0 3.189-.23 6.185 1.248 4.013 1.748 8.622 3.764 13.232 4.34 6.53.903 13.059-.96 18.878-3.61 3.053-1.44 6.164-3.111 9.467-3.802 0 0 2.996-.711 6.011-.25 4.187.46 8.335 1.901 12.905 1.824.903 0 1.806-.057 2.67-.153 0 0 4.801-1.037 7.201-2.036.116-.058.212-.096.308-.154 2.804-1.402 5.3-3.437 7.528-6.03a41 41 0 0 0 1.728-2.074c1.383-1.728 2.612-3.495 3.803-5.224 3.207-4.397 7.22-11.772 12.713-12.425 2.016-.21 4.071-.076 6.126.173 0 0 6.203.672 8.315.98 2.094.307 3.822-.25 3.822-.25 1.786-.787 2.938-2.535 2.574-4.782-.577-3.034-2.497-5.396-4.091-7.874-4.033-5.838-8.027-12.137-11.446-18.34-2.65-5.089-5.435-10.294-6.568-15.959a.13.13 0 0 0-.134-.134c-.077 0-.154.038-.173.115-.442 3.015.057 6.05.634 9.007.633 2.88 1.517 5.877 2.611 8.642 2.113 5.493 4.917 11.004 8.009 16.036a251 251 0 0 0 2.381 3.783c.749 1.191 1.767 2.631 2.439 3.995-1.383-.154-2.977-.48-4.417-.73-3.073-.538-6.165-1.037-9.391-.94-15.402.191-18.84 23.793-32.091 27.135-4.071 1.075-7.49.5-11.734-.442-2.112-2.112-3.726-4.647-5.166-7.278-2.65-4.993-4.36-10.735-5.377-16.343-.211-1.248-.48-3.438-.672-4.705l-.058-.672c-.077-.903-.25-3.15-.326-4.09l-.116-5.493-.595 5.473a405 405 0 0 0-.25 4.82c.039 1.882-.019 4.36.154 6.222.46 7.01 1.997 14.595 5.339 21.03-2.9-.116-5.82.172-8.546 1.017-2.996.845-5.762 2.343-8.527 3.649-5.973 2.765-12.444 4.34-18.84 2.247-4.129-1.114-8.316-3.822-12.809-4.57-2.9-.5-5.435-.27-7.74.383 2.17-6.779 3.438-13.808 4.302-20.856.673-5.377.941-10.946 1.037-16.362-.518 3.553-1.075 7.26-1.824 10.774-1.421 7.01-3.4 14.038-6.011 20.683-1.268 3.15-2.612 6.28-4.34 9.18-5.128 3.591-8.873 8.143-12.982 7.375-2.247-.404-4.398-1.882-6.453-3.246-2.381-1.613-5.012-3.476-8.181-4.782-3.803-1.67-7.759-1.959-11.619-1.344a160 160 0 0 0 2.228-5.723c3.706-10.025 6.606-20.337 8.738-30.804-1.153 3.38-2.343 6.721-3.668 10.025-3.88 9.794-8.393 19.358-13.846 28.346h.019c-2.708 1.114-5.32 2.554-7.701 4.148-6.664 4.59-14.173 6.203-21.26 2.516 1-2.305 1.94-4.61 2.824-6.971a195.3 195.3 0 0 0 10.236-38.985c1.306-8.566 1.959-17.226 1.882-25.907h.134c1.671 0 3.419-.769 5.205-2.266 3.898-3.304 6.548-10.678 10.524-21.835 4.57-12.83 10.85-30.401 22.18-50.181 3.265-5.685 3.803-10.41 1.614-14.058-1.767-2.939-4.897-4.398-7.74-5.128a68 68 0 0 1 9.852-7.663c8.45-5.454 22.834-12.214 43.325-13.5 20.241-1.287 36.95 2.208 50.027 10.427a55 55 0 0 1 4.917 3.438 60.7 60.7 0 0 1 8.469 8.027c1.344 1.556 2.65 3.169 3.86 4.897 4.148 5.78 7.547 12.483 10.236 20.088 2.688 7.625 5.415 15.978 8.046 24.044 1.421 4.34 2.843 8.7 4.283 13.021.5 1.498.999 2.996 1.498 4.475 6.165 18.187 12.617 35.125 19.857 45.476 5.128 7.355 7.125 13.962 5.339 17.668-1.249 2.554-4.494 4.033-9.68 4.36l2.593 5.607c6.203-.826 10.351-3.322 12.348-7.432 3.784-7.816-1.997-18.11-5.8-23.545-6.548-9.41-12.597-25.004-18.416-42 13.462-.653 26.963-7.336 35.759-17.38 5.3-5.973 9.487-15.383 5.876-23.41zM111.1 43.305c1.268 2.093-.211 5.589-1.69 8.143a239 239 0 0 0-8.642 16.516c-.557-3.342-1.575-6.607-3.111-9.583s-3.572-5.666-6.222-7.855c-14.711-11.772-33.627-7.835-40.54 10.16-3.764 11.176-9.987 20.76-18.667 28.767 3.687-2.88 7.201-6.01 10.255-9.583 3.86-4.455 7.105-9.506 9.64-14.845 1.402-3.111 2.766-6.203 4.936-8.815 5.396-7.01 14.46-9.621 22.623-6.318 13.174 4.84 16.42 17.822 15.364 30.938-3.4 8.181-6.011 15.498-8.22 21.74-2.707 7.604-4.954 13.922-7.144 17.321a64 64 0 0 1-5.953 1.037c-12.617 1.652-25.926-.557-36.776-7.355-7.605-4.705-17.15-13.77-16.228-23.372.46-3.88 3.053-6.26 5.992-8.93 3.399-3.034 7.029-6.376 9.698-10.217a44.6 44.6 0 0 0 3.687-6.26c1.882-4.034 3.726-7.855 6.011-11.6C52.585 42.114 62.725 34.01 75.4 32.07a24.9 24.9 0 0 1 11.811.845c8.143 2.766 14.922 8.2 21.72 13.424a27.8 27.8 0 0 0-2.727-5.646h.02c1.958.384 4.032 1.172 4.896 2.631zm184.29 28.25c-1.901 7.375-7.624 13.232-13.77 17.553-7.106 4.993-15.536 7.759-24.14 8.565-1.613-4.82-3.207-9.717-4.801-14.576-2.65-8.104-5.377-16.477-8.104-24.159-3.073-8.7-7.087-16.324-12.022-22.853.384-.345.768-.672 1.19-.998 4.552-3.63 10.582-5.647 16.324-4.379 5.82 1.19 10.716 5.819 13.481 11.081.98 1.863 2.036 3.956 3.188 5.78 4.57 7.567 10.87 13.962 18.167 18.897-4.935-4.225-9.43-8.987-12.867-14.499a62 62 0 0 1-4.57-8.469c-1.287-3.092-2.67-6.26-4.801-8.93-6.05-8.065-16.42-10.966-25.811-7.278a28 28 0 0 0-7.836 4.455 64 64 0 0 0-8.565-8.066c5.857-5.434 13.309-9.218 21.355-8.2 17.63 1.94 26.79 13.597 34.453 28.403 2.19 3.937 5.09 7.605 8.392 10.582 2.92 2.746 6.587 5.09 9.007 7.95 2.132 2.593 2.516 5.877 1.728 9.123z" class="st7"/><path d="M268.4 169.9s-13.385-1.556-17.322-3.802l-.346 4.301s5.147 5.512 20.261 5.109" class="st7"/></g></svg>